# xmcd
#
# Track frame offsets:
#	150
#	20012
#	37541
#	56312
#	71616
#	86494
#	100129
#	113453
#	121835
#	143464
#	164186
#	181488
#	201553
#	214294
#	226697
#	255495
#	272530
#	282436
#	297146
#	307842
#
# Disc length: 4241 seconds
#
# Revision: 1
# Processed by: cddbd v1.5.2PL0 Copyright (c) Steve Scherf et al.
# Submitted via: audiograbber 1.83.01
#
DISCID=12108f14
DTITLE=Various Artist - Country Greats - The Ultimate Collection CD2
DYEAR=2017
DGENRE=Country
TTITLE0=The Mavericks - Dance The Night Away
TTITLE1=John Mellencamp - Paper In Fire
TTITLE2=Sugarland - Stuck Like Glue
TTITLE3=Whiskeytown - Don't Be Bad
TTITLE4=Toby Keith - Courtesy Of The Red, White and Blue
TTITLE5=Jim Stafford - Spiders and Snakes
TTITLE6=Jerry Lee Lewis - You Win Again
TTITLE7=Jon Longford - Living A Lie
TTITLE8=Waco Brothers - Fast Train Down
TTITLE9=Joe Ely - The Road Goes On Forever
TTITLE10=Kirsty MacColl - Don't Come The Cowboy With Me Sonny Jim
TTITLE11=Old 97's - Big Brown Eyes
TTITLE12=Justin Townes Earle - Harlem River Blues
TTITLE13=Johnny Cash - I Walk The Line
TTITLE14=The Flying Burrito Brothers - Wild Horses
TTITLE15=Joe Walsh - Birdcall Morning
TTITLE16=Jerry Lee Lewis - Release Me
TTITLE17=Rita Remington - I've Never Been This Far Before
TTITLE18=Sleepy LaBeef - Blackland Farmer
TTITLE19=Warren Smith - Red Cadillac And A Black Moustache
EXTD=
EXTT0=
EXTT1=
EXTT2=
EXTT3=
EXTT4=
EXTT5=
EXTT6=
EXTT7=
EXTT8=
EXTT9=
EXTT10=
EXTT11=
EXTT12=
EXTT13=
EXTT14=
EXTT15=
EXTT16=
EXTT17=
EXTT18=
EXTT19=
PLAYORDER=
